<svg width="70" height="73" viewBox="0 0 70 73" fill="none" xmlns="http://www.w3.org/2000/svg">
<g clip-path="url(#clip0)">
<path d="M52.8358 8.79543C60.0595 8.79543 65.9155 14.8969 65.9155 22.4233C65.9155 31.0955 67.1047 39.7678 67.1047 39.7678C67.1047 39.7678 61.1594 43.4845 52.836 44.7234C44.5126 43.4844 38.5673 39.7678 38.5673 39.7678C38.5673 39.7678 39.7564 31.0955 39.7564 22.4233C39.7561 14.8969 45.6121 8.79543 52.8358 8.79543Z" fill="#D59F63"/>
<path d="M48.0795 21.1844V17.4677C48.0795 13.2563 50.9615 9.74878 54.782 8.96257C54.1455 8.86335 53.499 8.79543 52.8358 8.79543H52.8356C45.6119 8.79543 39.7561 14.8969 39.7561 22.4233C39.7561 31.0955 38.567 39.7678 38.567 39.7678C38.567 39.7678 44.5123 43.4845 52.8356 44.7234V26.1401L48.0795 21.1844Z" fill="#CD915A"/>
<path d="M67.2403 48.7444L59.0869 45.3464C58.184 44.9702 57.592 44.0591 57.592 43.0459V38.5289H48.0795V43.0459C48.0795 44.0591 47.4875 44.9702 46.5846 45.3464L38.4312 48.7444C37.0769 49.3089 36.1888 50.6756 36.1888 52.1952V57.1123C36.1888 57.7965 36.7212 58.3513 37.378 58.3513V69.5014H67.1045C67.7611 69.5014 68.2936 68.9467 68.2936 68.2624V58.3511C68.9503 58.3511 69.4827 57.7965 69.4827 57.1122V52.1951C69.4826 50.6754 68.5945 49.3088 67.2403 48.7444Z" fill="#FAD7A5"/>
<path d="M68.2935 57.1124V60.8291H67.1043C66.4477 60.8291 65.9152 61.3838 65.9152 62.0681V69.5015H62.348V57.1125H68.2935V57.1124Z" fill="#F0C891"/>
<path d="M48.0795 42.5382C49.5558 43.1416 51.1565 43.4847 52.8357 43.4847C54.5148 43.4847 56.1156 43.1416 57.5919 42.5382V38.5291H48.0793V42.5382H48.0795Z" fill="#F0C891"/>
<path d="M52.8358 41.0069C46.9255 41.0069 42.1343 36.0148 42.1343 29.8568V26.0374C42.1343 25.4285 42.5651 24.9157 43.1424 24.8223C45.8725 24.3803 47.1947 22.188 47.7457 20.8982C47.9313 20.4637 48.4488 20.3228 48.8132 20.6093C53.8509 24.5692 63.5375 21.6061 63.5375 29.857C63.5373 36.0147 58.7461 41.0069 52.8358 41.0069Z" fill="#FFE1B4"/>
<path d="M48.0795 29.8566V20.5543C47.9405 20.6274 47.8159 20.7335 47.7456 20.898C47.1945 22.1878 45.8724 24.3801 43.1423 24.822C42.5648 24.9155 42.1342 25.4285 42.1342 26.0371V29.8566C42.1342 36.0146 46.9254 41.0066 52.8357 41.0066C53.8684 41.0066 54.8636 40.846 55.8083 40.5616C51.3461 39.2184 48.0795 34.9387 48.0795 29.8566Z" fill="#FAD098"/>
<path d="M52.8358 36.0512C51.5771 36.0512 50.3741 35.4324 49.5345 34.3537C49.1199 33.8219 49.199 33.0422 49.7087 32.6109C50.2208 32.1802 50.9685 32.2624 51.3808 32.7929C52.1658 33.7995 53.5058 33.7995 54.2907 32.7929C54.7029 32.2624 55.4519 32.1802 55.9628 32.6109C56.4725 33.0422 56.5516 33.8219 56.137 34.3537C55.2976 35.4324 54.0946 36.0512 52.8358 36.0512Z" fill="#D7AF7D"/>
<path d="M57.592 29.8567C56.9348 29.8567 56.4029 29.3019 56.4029 28.6177V27.3787C56.4029 26.6946 56.9347 26.1398 57.592 26.1398C58.2492 26.1398 58.7811 26.6946 58.7811 27.3787V28.6177C58.7811 29.302 58.2492 29.8567 57.592 29.8567Z" fill="#64463C"/>
<path d="M48.0795 29.8567C47.4223 29.8567 46.8904 29.3019 46.8904 28.6177V27.3787C46.8904 26.6946 47.4222 26.1398 48.0795 26.1398C48.7368 26.1398 49.2686 26.6946 49.2686 27.3787V28.6177C49.2686 29.302 48.7368 29.8567 48.0795 29.8567Z" fill="#64463C"/>
<path d="M67.2403 48.7446L62.1683 46.6307C61.3144 51.1912 57.4629 54.6347 52.8358 54.6347C48.2088 54.6347 44.3573 51.1912 43.5034 46.6307L38.4313 48.7446C37.0771 49.309 36.189 50.6757 36.189 52.1954V69.5015H42.1343H63.5375V58.3514H68.2937C68.9503 58.3514 69.4828 57.7968 69.4828 57.1125V52.1955C69.4826 50.6756 68.5946 49.3089 67.2403 48.7446Z" fill="#FF507D"/>
<path d="M62.1683 46.6307C61.3144 51.1912 57.4628 54.6347 52.8358 54.6347C48.2088 54.6347 44.3573 51.1912 43.5034 46.6307L41.2709 47.5611C42.5038 53.0334 47.2075 57.1125 52.8358 57.1125C58.4642 57.1125 63.1678 53.0334 64.4007 47.5611L62.1683 46.6307Z" fill="#D23C69"/>
<path d="M63.5374 56.9C63.5374 56.243 63.7879 55.6127 64.2339 55.148L68.9417 50.2428C69.2837 50.8184 69.4827 51.4882 69.4827 52.1954V57.1125C69.4827 57.7967 68.9503 58.3515 68.2935 58.3515H63.5374V56.9Z" fill="#D23C69"/>
<path d="M8.84059 69.5014H2.89529C2.23864 69.5014 1.70618 68.9467 1.70618 68.2624V53.3956H8.84059V69.5014Z" fill="#B48764"/>
<path d="M1.7063 55.8736V58.3514H4.08439C4.74104 58.3514 5.27351 58.906 5.27351 59.5903V69.5016H8.84071V55.8737H1.7063V55.8736Z" fill="#966D50"/>
<path d="M34.9993 53.3955H27.8649V69.5014H34.9993V53.3955Z" fill="#966D50"/>
<path d="M33.5604 40.2598L23.1093 37.2899H13.5968L3.14571 40.2598C1.59385 40.7009 0.517212 42.1694 0.517212 43.8455V54.6346C0.517212 55.3188 1.04954 55.8736 1.70633 55.8736H7.65163V69.5014H29.0547V53.0861H36.189V43.8455C36.189 42.1694 35.1124 40.7009 33.5604 40.2598Z" fill="#00AAF0"/>
<path d="M23.1093 37.2901H13.5968L8.9353 38.6147C9.55815 43.4606 13.5316 47.2014 18.3531 47.2014C23.1746 47.2014 27.1481 43.4606 27.7709 38.6147L23.1093 37.2901Z" fill="#0096DC"/>
<path d="M12.4078 32.9539V37.2902C12.4078 40.7113 15.0696 43.4847 18.3531 43.4847C21.6367 43.4847 24.2984 40.7113 24.2984 37.2902V32.9539H12.4078Z" fill="#B48764"/>
<path d="M12.4078 35.7898C14.1937 36.7442 16.212 37.2902 18.3531 37.2902C20.4943 37.2902 22.5126 36.7442 24.2984 35.7898V32.9539H12.4078V35.7898Z" fill="#966D50"/>
<path d="M29.0546 18.7066V11.2732H7.65165V18.7066C6.33821 18.7066 5.27356 19.8159 5.27356 21.1844C5.27356 22.5529 6.33835 23.6622 7.65165 23.6622C7.65165 29.8202 12.4429 34.8122 18.3531 34.8122C24.2634 34.8122 29.0546 29.8202 29.0546 23.6622C30.3681 23.6622 31.4327 22.5528 31.4327 21.1844C31.4327 19.8159 30.3681 18.7066 29.0546 18.7066Z" fill="#C39772"/>
<path d="M13.5968 23.6622V11.2732H7.65165V18.7066C6.33821 18.7066 5.27356 19.8159 5.27356 21.1844C5.27356 22.5529 6.33835 23.6622 7.65165 23.6622C7.65165 29.8202 12.4429 34.8122 18.3531 34.8122C19.3857 34.8122 20.381 34.6515 21.3258 34.3672C16.8634 33.024 13.5968 28.7443 13.5968 23.6622Z" fill="#B48764"/>
<path d="M18.3531 29.8567C17.0943 29.8567 15.8914 29.238 15.0518 28.1593C14.6372 27.6275 14.7162 26.8478 15.2259 26.4165C15.7381 25.9863 16.4858 26.0687 16.8981 26.5985C17.6831 27.6051 19.0231 27.6051 19.808 26.5985C20.2214 26.0686 20.9692 25.9863 21.4801 26.4165C21.9898 26.8478 22.0689 27.6275 21.6543 28.1593C20.8148 29.238 19.6118 29.8567 18.3531 29.8567Z" fill="#966D50"/>
<path d="M13.5968 23.662C12.9396 23.662 12.4077 23.1072 12.4077 22.4231V21.1841C12.4077 20.4999 12.9394 19.9451 13.5968 19.9451C14.2541 19.9451 14.7859 20.4999 14.7859 21.1841V22.4231C14.7859 23.1074 14.2541 23.662 13.5968 23.662Z" fill="#553732"/>
<path d="M23.1093 23.662C22.4521 23.662 21.9202 23.1072 21.9202 22.4231V21.1841C21.9202 20.4999 22.452 19.9451 23.1093 19.9451C23.7665 19.9451 24.2984 20.4999 24.2984 21.1841V22.4231C24.2984 23.1074 23.7665 23.662 23.1093 23.662Z" fill="#553732"/>
<path d="M26.3573 17.5275C26.7045 18.4856 27.6874 18.9197 28.6556 18.7427C28.7851 18.719 28.9183 18.7067 29.0546 18.7067C29.49 18.7067 29.8927 18.8375 30.2437 19.0504V11.2732C30.2437 9.41968 29.2556 7.82284 27.8092 6.97292C27.539 5.19939 26.0767 3.83974 24.2984 3.83974H14.7859C10.1891 3.83974 6.46252 7.7225 6.46252 12.512V19.0502C6.81355 18.8373 7.21616 18.7065 7.65164 18.7065C7.80452 18.7065 7.95363 18.722 8.09776 18.7516C9.25576 18.9892 10.4154 18.3223 10.7054 17.1302L10.9978 15.9116C11.127 15.3729 11.5802 14.989 12.1128 14.9739C14.3251 14.9118 20.1649 14.6061 24.1468 13.1044C24.8518 12.8386 25.6115 13.2859 25.7347 14.0564L26.1799 16.8397C26.218 17.0788 26.2779 17.3086 26.3573 17.5275Z" fill="#64463C"/>
<path d="M13.5968 11.2732C13.5968 7.16786 16.7909 3.83974 20.7312 3.83974H14.7859C10.1891 3.83974 6.46252 7.72236 6.46252 12.512V19.0502C6.81355 18.8373 7.21616 18.7065 7.65164 18.7065C7.80452 18.7065 7.9535 18.722 8.09762 18.7516C9.25576 18.989 10.4152 18.3223 10.7052 17.1302L10.9977 15.9116C11.1268 15.3729 11.58 14.989 12.1127 14.9739C12.5031 14.963 13.0109 14.9438 13.5969 14.9123L13.5968 11.2732Z" fill="#553732"/>
<path d="M0.517212 43.8454V54.6347C0.517212 55.3188 1.04954 55.8736 1.70633 55.8736H7.65163V51.8045C7.65163 50.427 7.21089 49.0888 6.3992 48.0014L1.44434 41.3639C0.867966 42.0298 0.517212 42.9008 0.517212 43.8454Z" fill="#0096DC"/>
<path d="M44.4514 62.4598L40.5693 61.1115C40.0837 60.9428 39.7562 60.4695 39.7562 59.9363V57.1126H32.6219V59.9363C32.6219 60.4696 32.2945 60.943 31.8089 61.1115L27.9268 62.4598C26.4702 62.9658 25.4877 64.386 25.4877 65.9858V68.2626C25.4877 68.9468 26.02 69.5016 26.6768 69.5016H45.7017C46.3583 69.5016 46.8908 68.9469 46.8908 68.2626V65.9858C46.8905 64.386 45.908 62.9658 44.4514 62.4598Z" fill="#E6AF78"/>
<path d="M32.6218 57.1125V59.9362C32.6218 60.0069 32.6017 60.0722 32.5907 60.1403C33.6207 60.5429 34.7176 60.7882 35.8616 60.824C35.9707 60.8274 36.0806 60.8291 36.189 60.8291C37.4542 60.8291 38.6637 60.5878 39.7913 60.1658C39.7772 60.0897 39.7562 60.0156 39.7562 59.9362V57.1125H32.6218Z" fill="#D29B6E"/>
<path d="M36.189 31.0957C30.2787 31.0957 25.4875 36.0877 25.4875 42.2458V45.9625H46.8906V42.2458C46.8904 36.0877 42.0992 31.0957 36.189 31.0957Z" fill="#64463C"/>
<path d="M39.7561 31.7437C38.6389 31.3316 37.4417 31.0957 36.1889 31.0957C30.2786 31.0957 25.4874 36.0877 25.4874 42.2458V45.9625H32.6218V42.2458C32.6218 37.3931 35.6026 33.2759 39.7561 31.7437Z" fill="#553732"/>
<path d="M44.5124 43.4847V42.4119C44.5124 40.5838 42.6802 39.4368 41.096 40.2228C34.5372 43.4773 27.8656 43.4847 27.8656 43.4847C26.5521 43.4847 25.4875 44.594 25.4875 45.9625C25.4875 47.331 26.5523 48.4403 27.8656 48.4403V49.3154C27.8656 54.064 31.3774 58.2048 35.9329 58.3474C40.6467 58.4949 44.5124 54.5573 44.5124 49.6792V48.4403C45.8258 48.4403 46.8905 47.3308 46.8905 45.9625C46.8905 44.594 45.8257 43.4847 44.5124 43.4847Z" fill="#F0C087"/>
<path d="M42.4946 28.9878L36.189 31.8035L29.8834 28.9878C29.491 28.8126 29.0547 29.1124 29.0547 29.5571V35.1117C29.0547 35.5564 29.4912 35.8562 29.8834 35.6811L36.189 32.8653L42.4946 35.6811C42.887 35.8562 43.3233 35.5564 43.3233 35.1117V29.5571C43.3233 29.1125 42.8869 28.8126 42.4946 28.9878Z" fill="#FFDC64"/>
<path d="M32.6218 49.6791V42.9669C29.8101 43.4777 27.8656 43.4846 27.8656 43.4846C26.5521 43.4846 25.4875 44.5939 25.4875 45.9624C25.4875 47.3309 26.5523 48.4401 27.8656 48.4401V49.3153C27.8656 54.0638 31.3774 58.2048 35.9329 58.3473C36.8511 58.3761 37.7354 58.2455 38.567 57.9874C35.1297 56.9207 32.6218 53.6069 32.6218 49.6791Z" fill="#E6AF78"/>
<path d="M36.189 54.6345C34.9303 54.6345 33.7273 54.0158 32.8877 52.9371C32.4731 52.4053 32.5522 51.6256 33.0619 51.1943C33.5728 50.7641 34.3217 50.8465 34.734 51.3763C35.519 52.3829 36.859 52.3829 37.6439 51.3763C38.0561 50.8464 38.8039 50.7641 39.316 51.1943C39.8257 51.6256 39.9048 52.4053 39.4902 52.9371C38.6506 54.0158 37.4476 54.6345 36.189 54.6345Z" fill="#D29B6E"/>
<path d="M32.6218 48.4401C32.313 48.4401 32.0029 48.3034 31.7777 48.0809C31.5628 47.8455 31.4329 47.5231 31.4329 47.2013C31.4329 46.8789 31.563 46.557 31.7777 46.3218C32.2177 45.8633 33.0259 45.8633 33.466 46.3218C33.6796 46.5571 33.8108 46.8789 33.8108 47.2013C33.8108 47.5231 33.6796 47.8456 33.466 48.0809C33.2396 48.3034 32.9307 48.4401 32.6218 48.4401Z" fill="#553732"/>
<path d="M39.7561 48.4401C39.4473 48.4401 39.1372 48.3034 38.912 48.0809C38.8052 47.969 38.7215 47.8329 38.6624 47.6719C38.6031 47.5231 38.5671 47.3622 38.5671 47.2013C38.5671 47.0398 38.6031 46.8789 38.6624 46.73C38.7216 46.5691 38.8052 46.4331 38.912 46.3218C39.352 45.8633 40.1486 45.8633 40.6003 46.3218C40.7071 46.4451 40.7907 46.5692 40.8499 46.73C40.9091 46.8788 40.9451 47.0398 40.9451 47.2013C40.9451 47.5231 40.8139 47.8456 40.6003 48.0809C40.374 48.3034 40.065 48.4401 39.7561 48.4401Z" fill="#553732"/>
<path d="M44.4514 62.4597L42.5124 61.7864C41.3214 64.1613 38.939 65.7848 36.189 65.7848C33.439 65.7848 31.0566 64.1614 29.8658 61.7864L27.9268 62.4597C26.4702 62.9657 25.4877 64.386 25.4877 65.9857V68.2625C25.4877 68.9467 26.02 69.5015 26.6768 69.5015H45.7017C46.3583 69.5015 46.8908 68.9469 46.8908 68.2625V65.9857C46.8905 64.386 45.908 62.9657 44.4514 62.4597Z" fill="#FFDC64"/>
<path d="M36.1893 34.1922C37.1743 34.1922 37.9728 33.3602 37.9728 32.3339C37.9728 31.3076 37.1743 30.4756 36.1893 30.4756C35.2043 30.4756 34.4058 31.3076 34.4058 32.3339C34.4058 33.3602 35.2043 34.1922 36.1893 34.1922Z" fill="#FFC850"/>
</g>
<defs>
<clipPath id="clip0">
<rect x="0.517212" y="0.742523" width="68.9655" height="71.8563" rx="15" fill="white"/>
</clipPath>
</defs>
</svg>
