<svg width="87" height="17" viewBox="0 0 87 17" fill="none" xmlns="http://www.w3.org/2000/svg">
<path d="M3.13672 10.9902V16H0.207031V1.78125H5.75391C6.82161 1.78125 7.75911 1.97656 8.56641 2.36719C9.38021 2.75781 10.0052 3.31445 10.4414 4.03711C10.8776 4.75326 11.0957 5.57031 11.0957 6.48828C11.0957 7.88151 10.6172 8.98177 9.66016 9.78906C8.70964 10.5898 7.39128 10.9902 5.70508 10.9902H3.13672ZM3.13672 8.61719H5.75391C6.52865 8.61719 7.11784 8.4349 7.52148 8.07031C7.93164 7.70573 8.13672 7.1849 8.13672 6.50781C8.13672 5.8112 7.93164 5.24805 7.52148 4.81836C7.11133 4.38867 6.54492 4.16732 5.82227 4.1543H3.13672V8.61719ZM18.8691 8.08008C18.485 8.02799 18.1465 8.00195 17.8535 8.00195C16.7858 8.00195 16.0859 8.36328 15.7539 9.08594V16H12.9316V5.43359H15.5977L15.6758 6.69336C16.2422 5.72331 17.0267 5.23828 18.0293 5.23828C18.3418 5.23828 18.6348 5.2806 18.9082 5.36523L18.8691 8.08008ZM19.4453 10.6191C19.4453 9.57096 19.6471 8.63672 20.0508 7.81641C20.4544 6.99609 21.0339 6.36133 21.7891 5.91211C22.5508 5.46289 23.4329 5.23828 24.4355 5.23828C25.8613 5.23828 27.0234 5.67448 27.9219 6.54688C28.8268 7.41927 29.3314 8.60417 29.4355 10.1016L29.4551 10.8242C29.4551 12.4453 29.0026 13.7474 28.0977 14.7305C27.1927 15.707 25.9785 16.1953 24.4551 16.1953C22.9316 16.1953 21.7142 15.707 20.8027 14.7305C19.8978 13.7539 19.4453 12.4258 19.4453 10.7461V10.6191ZM22.2676 10.8242C22.2676 11.8268 22.4564 12.5951 22.834 13.1289C23.2116 13.6562 23.752 13.9199 24.4551 13.9199C25.1387 13.9199 25.6725 13.6595 26.0566 13.1387C26.4408 12.6113 26.6328 11.7715 26.6328 10.6191C26.6328 9.63607 26.4408 8.87435 26.0566 8.33398C25.6725 7.79362 25.1322 7.52344 24.4355 7.52344C23.7454 7.52344 23.2116 7.79362 22.834 8.33398C22.4564 8.86784 22.2676 9.69792 22.2676 10.8242ZM31.9648 16V7.50391H30.3926V5.43359H31.9648V4.53516C31.9648 3.35026 32.3034 2.43229 32.9805 1.78125C33.6641 1.1237 34.6178 0.794922 35.8418 0.794922C36.2324 0.794922 36.7109 0.860026 37.2773 0.990234L37.248 3.17773C37.0137 3.11914 36.7272 3.08984 36.3887 3.08984C35.3275 3.08984 34.7969 3.58789 34.7969 4.58398V5.43359H36.8965V7.50391H34.7969V16H31.9648ZM42.9902 16.1953C41.4408 16.1953 40.1777 15.7201 39.2012 14.7695C38.2311 13.819 37.7461 12.5527 37.7461 10.9707V10.6973C37.7461 9.63607 37.9512 8.6888 38.3613 7.85547C38.7715 7.01562 39.3509 6.37109 40.0996 5.92188C40.8548 5.46615 41.7142 5.23828 42.6777 5.23828C44.123 5.23828 45.2591 5.69401 46.0859 6.60547C46.9193 7.51693 47.3359 8.80924 47.3359 10.4824V11.6348H40.6074C40.6986 12.3249 40.972 12.8783 41.4277 13.2949C41.89 13.7116 42.4727 13.9199 43.1758 13.9199C44.263 13.9199 45.1126 13.526 45.7246 12.7383L47.1113 14.291C46.6882 14.89 46.1152 15.3587 45.3926 15.6973C44.6699 16.0293 43.8691 16.1953 42.9902 16.1953ZM42.668 7.52344C42.1081 7.52344 41.6523 7.71224 41.3008 8.08984C40.9557 8.46745 40.7344 9.00781 40.6367 9.71094H44.5625V9.48633C44.5495 8.86133 44.3802 8.37956 44.0547 8.04102C43.7292 7.69596 43.2669 7.52344 42.668 7.52344ZM54.6699 13.0801C54.6699 12.735 54.4974 12.4648 54.1523 12.2695C53.8138 12.0677 53.2669 11.8887 52.5117 11.7324C49.9987 11.2051 48.7422 10.1374 48.7422 8.5293C48.7422 7.5918 49.1296 6.81055 49.9043 6.18555C50.6855 5.55404 51.7044 5.23828 52.9609 5.23828C54.3021 5.23828 55.373 5.55404 56.1738 6.18555C56.9811 6.81706 57.3848 7.63737 57.3848 8.64648H54.5625C54.5625 8.24284 54.4323 7.91081 54.1719 7.65039C53.9115 7.38346 53.5046 7.25 52.9512 7.25C52.4759 7.25 52.1081 7.35742 51.8477 7.57227C51.5872 7.78711 51.457 8.06055 51.457 8.39258C51.457 8.70508 51.6035 8.95898 51.8965 9.1543C52.196 9.3431 52.6973 9.50911 53.4004 9.65234C54.1035 9.78906 54.696 9.94531 55.1777 10.1211C56.6686 10.668 57.4141 11.6152 57.4141 12.9629C57.4141 13.9264 57.0007 14.7077 56.1738 15.3066C55.347 15.8991 54.2793 16.1953 52.9707 16.1953C52.0853 16.1953 51.2975 16.0391 50.6074 15.7266C49.9238 15.4076 49.3867 14.9746 48.9961 14.4277C48.6055 13.8743 48.4102 13.2786 48.4102 12.6406H51.0859C51.112 13.1419 51.2975 13.526 51.6426 13.793C51.9876 14.0599 52.4499 14.1934 53.0293 14.1934C53.5697 14.1934 53.9766 14.0924 54.25 13.8906C54.5299 13.6823 54.6699 13.4121 54.6699 13.0801ZM64.9629 13.0801C64.9629 12.735 64.7904 12.4648 64.4453 12.2695C64.1068 12.0677 63.5599 11.8887 62.8047 11.7324C60.2917 11.2051 59.0352 10.1374 59.0352 8.5293C59.0352 7.5918 59.4225 6.81055 60.1973 6.18555C60.9785 5.55404 61.9974 5.23828 63.2539 5.23828C64.5951 5.23828 65.666 5.55404 66.4668 6.18555C67.2741 6.81706 67.6777 7.63737 67.6777 8.64648H64.8555C64.8555 8.24284 64.7253 7.91081 64.4648 7.65039C64.2044 7.38346 63.7975 7.25 63.2441 7.25C62.7689 7.25 62.401 7.35742 62.1406 7.57227C61.8802 7.78711 61.75 8.06055 61.75 8.39258C61.75 8.70508 61.8965 8.95898 62.1895 9.1543C62.4889 9.3431 62.9902 9.50911 63.6934 9.65234C64.3965 9.78906 64.9889 9.94531 65.4707 10.1211C66.9616 10.668 67.707 11.6152 67.707 12.9629C67.707 13.9264 67.2936 14.7077 66.4668 15.3066C65.64 15.8991 64.5723 16.1953 63.2637 16.1953C62.3783 16.1953 61.5905 16.0391 60.9004 15.7266C60.2168 15.4076 59.6797 14.9746 59.2891 14.4277C58.8984 13.8743 58.7031 13.2786 58.7031 12.6406H61.3789C61.4049 13.1419 61.5905 13.526 61.9355 13.793C62.2806 14.0599 62.7428 14.1934 63.3223 14.1934C63.8626 14.1934 64.2695 14.0924 64.543 13.8906C64.8229 13.6823 64.9629 13.4121 64.9629 13.0801ZM69.0938 10.6191C69.0938 9.57096 69.2956 8.63672 69.6992 7.81641C70.1029 6.99609 70.6823 6.36133 71.4375 5.91211C72.1992 5.46289 73.0814 5.23828 74.084 5.23828C75.5098 5.23828 76.6719 5.67448 77.5703 6.54688C78.4753 7.41927 78.9798 8.60417 79.084 10.1016L79.1035 10.8242C79.1035 12.4453 78.651 13.7474 77.7461 14.7305C76.8411 15.707 75.627 16.1953 74.1035 16.1953C72.5801 16.1953 71.3626 15.707 70.4512 14.7305C69.5462 13.7539 69.0938 12.4258 69.0938 10.7461V10.6191ZM71.916 10.8242C71.916 11.8268 72.1048 12.5951 72.4824 13.1289C72.86 13.6562 73.4004 13.9199 74.1035 13.9199C74.7871 13.9199 75.321 13.6595 75.7051 13.1387C76.0892 12.6113 76.2812 11.7715 76.2812 10.6191C76.2812 9.63607 76.0892 8.87435 75.7051 8.33398C75.321 7.79362 74.7806 7.52344 74.084 7.52344C73.3939 7.52344 72.86 7.79362 72.4824 8.33398C72.1048 8.86784 71.916 9.69792 71.916 10.8242ZM86.7793 8.08008C86.3952 8.02799 86.0566 8.00195 85.7637 8.00195C84.696 8.00195 83.9961 8.36328 83.6641 9.08594V16H80.8418V5.43359H83.5078L83.5859 6.69336C84.1523 5.72331 84.9368 5.23828 85.9395 5.23828C86.252 5.23828 86.5449 5.2806 86.8184 5.36523L86.7793 8.08008Z" fill="#D0004B"/>
</svg>
